<?xml version="1.0" standalone="no"?>
<!DOCTYPE svg PUBLIC "-//W3C//DTD SVG 20010904//EN"
 "http://www.w3.org/TR/2001/REC-SVG-20010904/DTD/svg10.dtd">
<svg version="1.0" xmlns="http://www.w3.org/2000/svg"
 width="399.000000pt" height="399.000000pt" viewBox="0 0 399.000000 399.000000"
 preserveAspectRatio="xMidYMid meet">
<metadata>
Created by potrace 1.11, written by Peter Selinger 2001-2013
</metadata>
<g transform="translate(0.000000,399.000000) scale(0.100000,-0.100000)"
fill="#000000" stroke="none">
<path d="M274 3943 c-46 -42 -72 -111 -95 -253 -33 -205 -33 -666 0 -883 18
-116 21 -132 26 -157 2 -14 10 -50 16 -80 10 -54 64 -250 76 -280 3 -8 7 -20
8 -26 14 -63 126 -308 214 -466 37 -66 37 -72 11 -126 -47 -98 -127 -328 -156
-454 -74 -310 3 -570 230 -781 129 -120 290 -202 496 -253 36 -8 99 -24 140
-34 41 -11 87 -19 103 -20 15 0 35 -4 45 -10 15 -8 177 -38 332 -61 163 -25
460 -19 619 13 30 5 91 16 135 24 84 14 138 25 216 44 25 6 69 15 99 21 29 5
65 16 80 23 14 7 42 16 61 20 56 10 184 63 269 111 24 14 49 25 55 25 36 0
217 167 275 252 82 122 123 262 123 415 -1 57 -3 107 -6 112 -3 4 -8 26 -10
47 -12 91 -84 334 -145 487 l-31 78 24 42 c44 75 133 251 156 307 12 30 26 64
31 75 68 158 151 494 173 705 23 210 23 605 1 765 -29 210 -44 262 -89 308
-28 27 -34 29 -85 24 -105 -11 -351 -127 -541 -256 -202 -137 -424 -356 -573
-569 -20 -28 -37 -56 -37 -61 0 -5 -3 -11 -8 -13 -8 -3 -54 -79 -87 -140 l-20
-38 -396 0 -396 0 -54 96 c-114 202 -297 421 -494 589 -140 120 -369 264 -510
322 -141 58 -176 69 -215 71 -33 2 -51 -2 -66 -15z"/>
</g>
</svg>
